<svg xmlns="http://www.w3.org/2000/svg" width="612.001" height="612" viewBox="0 0 612.001 612">
  <path id="Exclusion_1" data-name="Exclusion 1" d="M-4276-3387h-408a100.734,100.734,0,0,1-39.605-8.048,102.379,102.379,0,0,1-17.322-9.433,103.434,103.434,0,0,1-15.111-12.481,103.412,103.412,0,0,1-12.481-15.111,102.362,102.362,0,0,1-9.433-17.322A100.742,100.742,0,0,1-4786-3489v-408a100.74,100.74,0,0,1,8.048-39.6,102.355,102.355,0,0,1,9.433-17.322,103.389,103.389,0,0,1,12.481-15.111,103.434,103.434,0,0,1,15.111-12.481,102.378,102.378,0,0,1,17.322-9.433A100.734,100.734,0,0,1-4684-3999h408a100.734,100.734,0,0,1,39.605,8.048,102.385,102.385,0,0,1,17.322,9.433,103.474,103.474,0,0,1,15.111,12.481,103.391,103.391,0,0,1,12.481,15.111,102.348,102.348,0,0,1,9.433,17.322A100.738,100.738,0,0,1-4174-3897v408a100.74,100.74,0,0,1-8.048,39.6,102.356,102.356,0,0,1-9.433,17.322,103.427,103.427,0,0,1-12.481,15.111,103.474,103.474,0,0,1-15.111,12.481,102.388,102.388,0,0,1-17.322,9.433A100.734,100.734,0,0,1-4276-3387Zm-343.7-479v357h164c22.858,0,42.877-2.625,59.5-7.8a143.563,143.563,0,0,0,22.75-9.15,102.022,102.022,0,0,0,18.25-11.851,79.623,79.623,0,0,0,23.5-31.5,102.1,102.1,0,0,0,7.5-39.2c0-24.173-5.719-44.629-17-60.8-11.241-16.017-28.064-26.514-50-31.2v-1c16.258-6.939,28.976-16.965,37.8-29.8,8.758-12.741,13.2-28.285,13.2-46.2,0-29.47-9.757-51.844-29-66.5-19.167-14.6-45.073-22-77-22Zm173,306h-110.5v-111.6h110.5a98.66,98.66,0,0,1,13.431.869,70.769,70.769,0,0,1,11.819,2.631,54.9,54.9,0,0,1,10.244,4.431,48.485,48.485,0,0,1,8.707,6.269,45.033,45.033,0,0,1,6.941,7.936,46.281,46.281,0,0,1,4.934,9.426,56.04,56.04,0,0,1,2.947,10.945,76.111,76.111,0,0,1,.978,12.492,67.789,67.789,0,0,1-3.963,23.975,48.564,48.564,0,0,1-4.939,9.691,45.8,45.8,0,0,1-6.9,8.135,47.319,47.319,0,0,1-8.622,6.489,53.954,53.954,0,0,1-10.253,4.624A80.24,80.24,0,0,1-4446.7-3560Zm-8.5-156.5h-102v-98.6h102a83.345,83.345,0,0,1,22.5,2.763,45.691,45.691,0,0,1,16.5,8.237,29.808,29.808,0,0,1,5.906,6.486,37.748,37.748,0,0,1,4.219,8.5c2.24,6.309,3.375,14.051,3.375,23.012a65.031,65.031,0,0,1-.937,11.291,48.7,48.7,0,0,1-2.812,9.885,41.161,41.161,0,0,1-4.687,8.5,41.144,41.144,0,0,1-6.562,7.128,50.88,50.88,0,0,1-16.875,9.625A64.047,64.047,0,0,1-4455.2-3716.5Z" transform="translate(4786 3999)" fill="#a99458"/>
</svg>
