<svg xmlns="http://www.w3.org/2000/svg" width="501" height="642" viewBox="0 0 501 642">
  <g id="Group_38" data-name="Group 38" transform="translate(-388 -4138)">
    <g id="Group_29" data-name="Group 29" transform="translate(-648)">
      <circle id="Ellipse_6" data-name="Ellipse 6" cx="250.5" cy="250.5" r="250.5" transform="translate(1036 4279)" fill="#fff"/>
      <!-- <text id="CSS" transform="translate(1203 4248)" fill="#fff" font-size="116" font-family="Calibri"><tspan x="0" y="0">CSS</tspan></text> -->
      <g id="Group_36" data-name="Group 36" transform="translate(-59.23 10)">
        <g id="Group_34" data-name="Group 34" transform="translate(1140.785 4372.247)">
          <g id="Group_32" data-name="Group 32" transform="translate(0)">
            <g id="Group_31" data-name="Group 31">
              <path id="Path_13" data-name="Path 13" d="M1091.425,4420.332s73.027-8.4,75.834-110.861c0,0,4.21-23.86,32.281-36.492" transform="translate(-1091.425 -4272.979)" fill="none" stroke="#a99458" stroke-linecap="round" stroke-linejoin="round" stroke-width="23"/>
            </g>
          </g>
          <g id="Group_33" data-name="Group 33" transform="translate(0 147.129)">
            <g id="Group_31-2" data-name="Group 31" transform="translate(0)">
              <path id="Path_13-2" data-name="Path 13" d="M1091.425,4272.979s73.026,8.4,75.834,110.862c0,0,4.21,23.859,32.281,36.491" transform="translate(-1091.425 -4272.979)" fill="none" stroke="#a99458" stroke-linecap="round" stroke-linejoin="round" stroke-width="23"/>
            </g>
          </g>
        </g>
        <g id="Group_35" data-name="Group 35" transform="translate(1442.738 4372.247)">
          <g id="Group_32-2" data-name="Group 32" transform="translate(0)">
            <g id="Group_31-3" data-name="Group 31">
              <path id="Path_13-3" data-name="Path 13" d="M1199.54,4420.332s-73.026-8.4-75.834-110.861c0,0-4.21-23.86-32.281-36.492" transform="translate(-1091.425 -4272.979)" fill="none" stroke="#a99458" stroke-linecap="round" stroke-linejoin="round" stroke-width="23"/>
            </g>
          </g>
          <g id="Group_33-2" data-name="Group 33" transform="translate(0 147.129)">
            <g id="Group_31-4" data-name="Group 31">
              <path id="Path_13-4" data-name="Path 13" d="M1199.54,4272.979s-73.026,8.4-75.834,110.862c0,0-4.21,23.859-32.281,36.491" transform="translate(-1091.425 -4272.979)" fill="none" stroke="#a99458" stroke-linecap="round" stroke-linejoin="round" stroke-width="23"/>
            </g>
          </g>
        </g>
      </g>
    </g>
    <g id="Group_37" data-name="Group 37">
      <circle id="Ellipse_7" data-name="Ellipse 7" cx="17.5" cy="17.5" r="17.5" transform="translate(559 4531)" fill="#a99458"/>
      <circle id="Ellipse_8" data-name="Ellipse 8" cx="17.5" cy="17.5" r="17.5" transform="translate(621 4531)" fill="#a99458"/>
      <circle id="Ellipse_9" data-name="Ellipse 9" cx="17.5" cy="17.5" r="17.5" transform="translate(683 4531)" fill="#a99458"/>
    </g>
  </g>
</svg>
